<mxfile host="app.diagrams.net" modified="2023-09-15T13:57:59.357Z" agent="Mozilla/5.0 (Windows NT 10.0; Win64; x64) AppleWebKit/537.36 (KHTML, like Gecko) Chrome/116.0.0.0 Safari/537.36 Edg/116.0.1938.81" etag="ye4Pf1s1refJOcgq3e3h" version="21.7.5" type="device">
  <diagram id="C5RBs43oDa-KdzZeNtuy" name="Page-1">
    <mxGraphModel dx="1386" dy="879" grid="1" gridSize="10" guides="1" tooltips="1" connect="1" arrows="1" fold="1" page="1" pageScale="1" pageWidth="827" pageHeight="1169" math="0" shadow="0">
      <root>
        <mxCell id="WIyWlLk6GJQsqaUBKTNV-0" />
        <mxCell id="WIyWlLk6GJQsqaUBKTNV-1" parent="WIyWlLk6GJQsqaUBKTNV-0" />
        <mxCell id="WIyWlLk6GJQsqaUBKTNV-3" value="Начало" style="rounded=1;whiteSpace=wrap;html=1;fontSize=12;glass=0;strokeWidth=1;shadow=0;" parent="WIyWlLk6GJQsqaUBKTNV-1" vertex="1">
          <mxGeometry x="354" y="20" width="120" height="40" as="geometry" />
        </mxCell>
        <mxCell id="WIyWlLk6GJQsqaUBKTNV-11" value="Конец" style="rounded=1;whiteSpace=wrap;html=1;fontSize=12;glass=0;strokeWidth=1;shadow=0;" parent="WIyWlLk6GJQsqaUBKTNV-1" vertex="1">
          <mxGeometry x="354" y="790" width="120" height="40" as="geometry" />
        </mxCell>
        <mxCell id="0g9-6QXKd_SzCpvfWAEu-20" value="" style="edgeStyle=orthogonalEdgeStyle;rounded=0;orthogonalLoop=1;jettySize=auto;html=1;" edge="1" parent="WIyWlLk6GJQsqaUBKTNV-1" source="0g9-6QXKd_SzCpvfWAEu-0" target="0g9-6QXKd_SzCpvfWAEu-5">
          <mxGeometry relative="1" as="geometry" />
        </mxCell>
        <mxCell id="0g9-6QXKd_SzCpvfWAEu-0" value="&lt;div style=&quot;font-family: Consolas, &amp;quot;Courier New&amp;quot;, monospace; line-height: 27px; font-size: 15px;&quot;&gt;&lt;font color=&quot;#141414&quot; style=&quot;background-color: rgb(245, 245, 245); font-size: 15px;&quot;&gt;Verifay = { &quot;hello&quot;, &quot;2&quot;, &quot;word&quot;, &quot;:-)&quot;}&lt;/font&gt;&lt;/div&gt;&lt;div style=&quot;font-family: Consolas, &amp;quot;Courier New&amp;quot;, monospace; line-height: 27px; font-size: 15px;&quot;&gt;&lt;div style=&quot;line-height: 27px;&quot;&gt;&lt;div style=&quot;&quot;&gt;&lt;font color=&quot;#141414&quot; style=&quot;background-color: rgb(245, 245, 245); font-size: 15px;&quot;&gt;int Length = Verifay.Length&lt;/font&gt;&lt;/div&gt;&lt;div style=&quot;&quot;&gt;&lt;font color=&quot;#141414&quot; style=&quot;background-color: rgb(245, 245, 245); font-size: 15px;&quot;&gt;int j = 0&lt;/font&gt;&lt;/div&gt;&lt;div style=&quot;&quot;&gt;&lt;div style=&quot;line-height: 27px;&quot;&gt;&lt;span style=&quot;background-color: rgb(245, 245, 245);&quot;&gt;&lt;font style=&quot;font-size: 15px;&quot; color=&quot;#141414&quot;&gt;tmp = Verifay.ToList()&lt;/font&gt;&lt;/span&gt;&lt;/div&gt;&lt;/div&gt;&lt;/div&gt;&lt;/div&gt;" style="rounded=0;whiteSpace=wrap;html=1;align=left;" vertex="1" parent="WIyWlLk6GJQsqaUBKTNV-1">
          <mxGeometry x="80" y="150" width="340" height="130" as="geometry" />
        </mxCell>
        <mxCell id="0g9-6QXKd_SzCpvfWAEu-2" style="edgeStyle=orthogonalEdgeStyle;rounded=0;orthogonalLoop=1;jettySize=auto;html=1;exitX=0.5;exitY=1;exitDx=0;exitDy=0;" edge="1" parent="WIyWlLk6GJQsqaUBKTNV-1" source="WIyWlLk6GJQsqaUBKTNV-3" target="WIyWlLk6GJQsqaUBKTNV-3">
          <mxGeometry relative="1" as="geometry" />
        </mxCell>
        <mxCell id="0g9-6QXKd_SzCpvfWAEu-4" value="" style="endArrow=classic;html=1;rounded=0;exitX=0.5;exitY=1;exitDx=0;exitDy=0;entryX=0.5;entryY=0;entryDx=0;entryDy=0;" edge="1" parent="WIyWlLk6GJQsqaUBKTNV-1" source="WIyWlLk6GJQsqaUBKTNV-3" target="0g9-6QXKd_SzCpvfWAEu-0">
          <mxGeometry width="50" height="50" relative="1" as="geometry">
            <mxPoint x="390" y="480" as="sourcePoint" />
            <mxPoint x="220" y="170" as="targetPoint" />
            <Array as="points">
              <mxPoint x="414" y="100" />
              <mxPoint x="250" y="100" />
            </Array>
          </mxGeometry>
        </mxCell>
        <mxCell id="0g9-6QXKd_SzCpvfWAEu-8" value="" style="edgeStyle=orthogonalEdgeStyle;rounded=0;orthogonalLoop=1;jettySize=auto;html=1;" edge="1" parent="WIyWlLk6GJQsqaUBKTNV-1" source="0g9-6QXKd_SzCpvfWAEu-5" target="0g9-6QXKd_SzCpvfWAEu-7">
          <mxGeometry relative="1" as="geometry" />
        </mxCell>
        <mxCell id="0g9-6QXKd_SzCpvfWAEu-32" value="" style="edgeStyle=orthogonalEdgeStyle;rounded=0;orthogonalLoop=1;jettySize=auto;html=1;" edge="1" parent="WIyWlLk6GJQsqaUBKTNV-1" source="0g9-6QXKd_SzCpvfWAEu-5" target="0g9-6QXKd_SzCpvfWAEu-31">
          <mxGeometry relative="1" as="geometry" />
        </mxCell>
        <mxCell id="0g9-6QXKd_SzCpvfWAEu-5" value="&lt;div style=&quot;font-family: Consolas, &amp;quot;Courier New&amp;quot;, monospace; font-size: 14px; line-height: 27px;&quot;&gt;&lt;span style=&quot;background-color: rgb(242, 242, 242);&quot;&gt;&lt;font color=&quot;#121212&quot;&gt;int i = 0; i &amp;lt; Length; i++&lt;/font&gt;&lt;/span&gt;&lt;/div&gt;" style="shape=hexagon;perimeter=hexagonPerimeter2;whiteSpace=wrap;html=1;fixedSize=1;" vertex="1" parent="WIyWlLk6GJQsqaUBKTNV-1">
          <mxGeometry x="120" y="350" width="260" height="160" as="geometry" />
        </mxCell>
        <mxCell id="0g9-6QXKd_SzCpvfWAEu-21" value="" style="edgeStyle=orthogonalEdgeStyle;rounded=0;orthogonalLoop=1;jettySize=auto;html=1;" edge="1" parent="WIyWlLk6GJQsqaUBKTNV-1" source="0g9-6QXKd_SzCpvfWAEu-7" target="0g9-6QXKd_SzCpvfWAEu-9">
          <mxGeometry relative="1" as="geometry" />
        </mxCell>
        <mxCell id="0g9-6QXKd_SzCpvfWAEu-22" value="YES" style="edgeLabel;html=1;align=center;verticalAlign=middle;resizable=0;points=[];" vertex="1" connectable="0" parent="0g9-6QXKd_SzCpvfWAEu-21">
          <mxGeometry relative="1" as="geometry">
            <mxPoint as="offset" />
          </mxGeometry>
        </mxCell>
        <mxCell id="0g9-6QXKd_SzCpvfWAEu-23" value="" style="edgeStyle=orthogonalEdgeStyle;rounded=0;orthogonalLoop=1;jettySize=auto;html=1;" edge="1" parent="WIyWlLk6GJQsqaUBKTNV-1" source="0g9-6QXKd_SzCpvfWAEu-7" target="0g9-6QXKd_SzCpvfWAEu-11">
          <mxGeometry relative="1" as="geometry" />
        </mxCell>
        <mxCell id="0g9-6QXKd_SzCpvfWAEu-24" value="NO" style="edgeLabel;html=1;align=center;verticalAlign=middle;resizable=0;points=[];" vertex="1" connectable="0" parent="0g9-6QXKd_SzCpvfWAEu-23">
          <mxGeometry x="-0.1692" relative="1" as="geometry">
            <mxPoint as="offset" />
          </mxGeometry>
        </mxCell>
        <mxCell id="0g9-6QXKd_SzCpvfWAEu-7" value="&lt;div style=&quot;font-family: Consolas, &amp;quot;Courier New&amp;quot;, monospace; font-size: 20px; line-height: 27px;&quot;&gt;&lt;span style=&quot;background-color: rgb(242, 242, 242); font-size: 14px;&quot;&gt;&lt;font style=&quot;font-size: 14px;&quot; color=&quot;#171717&quot;&gt;tmp[j].Length &amp;gt; 3&lt;/font&gt;&lt;/span&gt;&lt;/div&gt;" style="rhombus;whiteSpace=wrap;html=1;" vertex="1" parent="WIyWlLk6GJQsqaUBKTNV-1">
          <mxGeometry x="450" y="360" width="150" height="140" as="geometry" />
        </mxCell>
        <mxCell id="0g9-6QXKd_SzCpvfWAEu-26" style="edgeStyle=orthogonalEdgeStyle;rounded=0;orthogonalLoop=1;jettySize=auto;html=1;entryX=0.931;entryY=-0.009;entryDx=0;entryDy=0;entryPerimeter=0;" edge="1" parent="WIyWlLk6GJQsqaUBKTNV-1" source="0g9-6QXKd_SzCpvfWAEu-9" target="0g9-6QXKd_SzCpvfWAEu-5">
          <mxGeometry relative="1" as="geometry">
            <Array as="points">
              <mxPoint x="720" y="300" />
              <mxPoint x="362" y="300" />
            </Array>
          </mxGeometry>
        </mxCell>
        <mxCell id="0g9-6QXKd_SzCpvfWAEu-9" value="&lt;div style=&quot;font-family: Consolas, &amp;quot;Courier New&amp;quot;, monospace; font-size: 20px; line-height: 27px;&quot;&gt;&lt;span style=&quot;background-color: rgb(237, 237, 237); font-size: 14px;&quot;&gt;&lt;font style=&quot;font-size: 14px;&quot; color=&quot;#0d0d0d&quot;&gt;tmp.RemoveAt(j)&lt;/font&gt;&lt;/span&gt;&lt;/div&gt;" style="rounded=0;whiteSpace=wrap;html=1;" vertex="1" parent="WIyWlLk6GJQsqaUBKTNV-1">
          <mxGeometry x="670" y="400" width="120" height="60" as="geometry" />
        </mxCell>
        <mxCell id="0g9-6QXKd_SzCpvfWAEu-25" style="edgeStyle=orthogonalEdgeStyle;rounded=0;orthogonalLoop=1;jettySize=auto;html=1;entryX=0.927;entryY=0.973;entryDx=0;entryDy=0;entryPerimeter=0;" edge="1" parent="WIyWlLk6GJQsqaUBKTNV-1" source="0g9-6QXKd_SzCpvfWAEu-11" target="0g9-6QXKd_SzCpvfWAEu-5">
          <mxGeometry relative="1" as="geometry" />
        </mxCell>
        <mxCell id="0g9-6QXKd_SzCpvfWAEu-11" value="j++" style="whiteSpace=wrap;html=1;" vertex="1" parent="WIyWlLk6GJQsqaUBKTNV-1">
          <mxGeometry x="465" y="560" width="120" height="60" as="geometry" />
        </mxCell>
        <mxCell id="0g9-6QXKd_SzCpvfWAEu-33" style="edgeStyle=orthogonalEdgeStyle;rounded=0;orthogonalLoop=1;jettySize=auto;html=1;entryX=0.5;entryY=0;entryDx=0;entryDy=0;" edge="1" parent="WIyWlLk6GJQsqaUBKTNV-1" source="0g9-6QXKd_SzCpvfWAEu-31" target="WIyWlLk6GJQsqaUBKTNV-11">
          <mxGeometry relative="1" as="geometry" />
        </mxCell>
        <mxCell id="0g9-6QXKd_SzCpvfWAEu-31" value="&lt;div style=&quot;font-family: Consolas, &amp;quot;Courier New&amp;quot;, monospace; font-size: 20px; line-height: 27px;&quot;&gt;&lt;span style=&quot;background-color: rgb(240, 240, 240); font-size: 14px;&quot;&gt;&lt;font style=&quot;font-size: 14px;&quot; color=&quot;#0a0a0a&quot;&gt;Console.WriteLine(String.Join(&quot;,&quot;, tmp))&lt;/font&gt;&lt;/span&gt;&lt;/div&gt;" style="rounded=0;whiteSpace=wrap;html=1;" vertex="1" parent="WIyWlLk6GJQsqaUBKTNV-1">
          <mxGeometry x="90" y="610" width="320" height="70" as="geometry" />
        </mxCell>
      </root>
    </mxGraphModel>
  </diagram>
</mxfile>
